G04 (created by PCBNEW (22-Jun-2014 BZR 4027)-stable) date Wed 04 Apr 2018 03:10:39 AM CDT*
%MOIN*%
G04 Gerber Fmt 3.4, Leading zero omitted, Abs format*
%FSLAX34Y34*%
G01*
G70*
G90*
G04 APERTURE LIST*
%ADD10C,0.00590551*%
%ADD11C,0.006*%
%ADD12C,0.01*%
G04 APERTURE END LIST*
G54D10*
G54D11*
X71178Y-41800D02*
X70935Y-41800D01*
X70907Y-41814D01*
X70892Y-41828D01*
X70878Y-41857D01*
X70878Y-41914D01*
X70892Y-41942D01*
X70907Y-41957D01*
X70935Y-41971D01*
X71178Y-41971D01*
X70892Y-42100D02*
X70878Y-42142D01*
X70878Y-42214D01*
X70892Y-42242D01*
X70907Y-42257D01*
X70935Y-42271D01*
X70964Y-42271D01*
X70992Y-42257D01*
X71007Y-42242D01*
X71021Y-42214D01*
X71035Y-42157D01*
X71050Y-42128D01*
X71064Y-42114D01*
X71092Y-42100D01*
X71121Y-42100D01*
X71150Y-42114D01*
X71164Y-42128D01*
X71178Y-42157D01*
X71178Y-42228D01*
X71164Y-42271D01*
X71035Y-42500D02*
X71021Y-42542D01*
X71007Y-42557D01*
X70978Y-42571D01*
X70935Y-42571D01*
X70907Y-42557D01*
X70892Y-42542D01*
X70878Y-42514D01*
X70878Y-42400D01*
X71178Y-42400D01*
X71178Y-42500D01*
X71164Y-42528D01*
X71150Y-42542D01*
X71121Y-42557D01*
X71092Y-42557D01*
X71064Y-42542D01*
X71050Y-42528D01*
X71035Y-42500D01*
X71035Y-42400D01*
X70992Y-42700D02*
X70992Y-42928D01*
X71178Y-43028D02*
X71178Y-43200D01*
X70878Y-43114D02*
X71178Y-43114D01*
X71178Y-43257D02*
X71178Y-43428D01*
X70878Y-43342D02*
X71178Y-43342D01*
X70878Y-43671D02*
X70878Y-43528D01*
X71178Y-43528D01*
X71078Y-43957D02*
X71078Y-44071D01*
X71178Y-44000D02*
X70921Y-44000D01*
X70892Y-44014D01*
X70878Y-44042D01*
X70878Y-44071D01*
X70878Y-44214D02*
X70892Y-44185D01*
X70907Y-44171D01*
X70935Y-44157D01*
X71021Y-44157D01*
X71050Y-44171D01*
X71064Y-44185D01*
X71078Y-44214D01*
X71078Y-44257D01*
X71064Y-44285D01*
X71050Y-44300D01*
X71021Y-44314D01*
X70935Y-44314D01*
X70907Y-44300D01*
X70892Y-44285D01*
X70878Y-44257D01*
X70878Y-44214D01*
X71078Y-44800D02*
X70878Y-44800D01*
X71192Y-44728D02*
X70978Y-44657D01*
X70978Y-44842D01*
X70878Y-44957D02*
X71178Y-44957D01*
X71178Y-45071D01*
X71164Y-45100D01*
X71150Y-45114D01*
X71121Y-45128D01*
X71078Y-45128D01*
X71050Y-45114D01*
X71035Y-45100D01*
X71021Y-45071D01*
X71021Y-44957D01*
X71078Y-45385D02*
X70878Y-45385D01*
X71192Y-45314D02*
X70978Y-45242D01*
X70978Y-45428D01*
X70907Y-45714D02*
X70892Y-45699D01*
X70878Y-45657D01*
X70878Y-45628D01*
X70892Y-45585D01*
X70921Y-45557D01*
X70950Y-45542D01*
X71007Y-45528D01*
X71050Y-45528D01*
X71107Y-45542D01*
X71135Y-45557D01*
X71164Y-45585D01*
X71178Y-45628D01*
X71178Y-45657D01*
X71164Y-45699D01*
X71150Y-45714D01*
X70284Y-43450D02*
X70298Y-43435D01*
X70341Y-43407D01*
X70370Y-43392D01*
X70412Y-43378D01*
X70484Y-43364D01*
X70541Y-43364D01*
X70612Y-43378D01*
X70655Y-43392D01*
X70684Y-43407D01*
X70727Y-43435D01*
X70741Y-43450D01*
X70598Y-43535D02*
X70398Y-43607D01*
X70598Y-43678D01*
X70398Y-43950D02*
X70398Y-43778D01*
X70398Y-43864D02*
X70698Y-43864D01*
X70655Y-43835D01*
X70627Y-43807D01*
X70612Y-43778D01*
X70284Y-44050D02*
X70298Y-44064D01*
X70341Y-44092D01*
X70370Y-44107D01*
X70412Y-44121D01*
X70484Y-44135D01*
X70541Y-44135D01*
X70612Y-44121D01*
X70655Y-44107D01*
X70684Y-44092D01*
X70727Y-44064D01*
X70741Y-44050D01*
G54D12*
X72503Y-45956D02*
X79590Y-45956D01*
X72503Y-41547D02*
X79590Y-41547D01*
X72503Y-45956D02*
X72503Y-41547D01*
X79590Y-45956D02*
X79590Y-41547D01*
X68000Y-40750D02*
X68000Y-46750D01*
X69000Y-40750D02*
X69000Y-46750D01*
X69000Y-41750D02*
X68000Y-41750D01*
X69000Y-46750D02*
X68000Y-46750D01*
X68000Y-40750D02*
X69000Y-40750D01*
G54D11*
X72121Y-44135D02*
X72321Y-44135D01*
X72007Y-44207D02*
X72221Y-44278D01*
X72221Y-44092D01*
X72321Y-43978D02*
X72021Y-43978D01*
X72021Y-43864D01*
X72035Y-43835D01*
X72050Y-43821D01*
X72078Y-43807D01*
X72121Y-43807D01*
X72150Y-43821D01*
X72164Y-43835D01*
X72178Y-43864D01*
X72178Y-43978D01*
X72121Y-43550D02*
X72321Y-43550D01*
X72007Y-43621D02*
X72221Y-43692D01*
X72221Y-43507D01*
X72292Y-43221D02*
X72307Y-43235D01*
X72321Y-43278D01*
X72321Y-43307D01*
X72307Y-43350D01*
X72278Y-43378D01*
X72250Y-43392D01*
X72192Y-43407D01*
X72150Y-43407D01*
X72092Y-43392D01*
X72064Y-43378D01*
X72035Y-43350D01*
X72021Y-43307D01*
X72021Y-43278D01*
X72035Y-43235D01*
X72050Y-43221D01*
M02*
