G04 (created by PCBNEW (22-Jun-2014 BZR 4027)-stable) date Wed 04 Apr 2018 07:30:33 PM CDT*
%MOIN*%
G04 Gerber Fmt 3.4, Leading zero omitted, Abs format*
%FSLAX34Y34*%
G01*
G70*
G90*
G04 APERTURE LIST*
%ADD10C,0.00590551*%
%ADD11C,0.006*%
%ADD12C,0.0001*%
G04 APERTURE END LIST*
G54D10*
G54D11*
X65300Y-43171D02*
X65300Y-43414D01*
X65314Y-43442D01*
X65328Y-43457D01*
X65357Y-43471D01*
X65400Y-43471D01*
X65428Y-43457D01*
X65300Y-43357D02*
X65328Y-43371D01*
X65385Y-43371D01*
X65414Y-43357D01*
X65428Y-43342D01*
X65442Y-43314D01*
X65442Y-43228D01*
X65428Y-43200D01*
X65414Y-43185D01*
X65385Y-43171D01*
X65328Y-43171D01*
X65300Y-43185D01*
X65157Y-43371D02*
X65157Y-43171D01*
X65157Y-43071D02*
X65171Y-43085D01*
X65157Y-43100D01*
X65142Y-43085D01*
X65157Y-43071D01*
X65157Y-43100D01*
X65057Y-43171D02*
X64942Y-43171D01*
X65014Y-43071D02*
X65014Y-43328D01*
X65000Y-43357D01*
X64971Y-43371D01*
X64942Y-43371D01*
X64842Y-43371D02*
X64842Y-43071D01*
X64714Y-43371D02*
X64714Y-43214D01*
X64728Y-43185D01*
X64757Y-43171D01*
X64799Y-43171D01*
X64828Y-43185D01*
X64842Y-43200D01*
X64442Y-43171D02*
X64442Y-43371D01*
X64571Y-43171D02*
X64571Y-43328D01*
X64557Y-43357D01*
X64528Y-43371D01*
X64485Y-43371D01*
X64457Y-43357D01*
X64442Y-43342D01*
X64299Y-43371D02*
X64299Y-43071D01*
X64299Y-43185D02*
X64271Y-43171D01*
X64214Y-43171D01*
X64185Y-43185D01*
X64171Y-43200D01*
X64157Y-43228D01*
X64157Y-43314D01*
X64171Y-43342D01*
X64185Y-43357D01*
X64214Y-43371D01*
X64271Y-43371D01*
X64299Y-43357D01*
X64028Y-43342D02*
X64014Y-43357D01*
X64028Y-43371D01*
X64042Y-43357D01*
X64028Y-43342D01*
X64028Y-43371D01*
X63757Y-43357D02*
X63785Y-43371D01*
X63842Y-43371D01*
X63871Y-43357D01*
X63885Y-43342D01*
X63899Y-43314D01*
X63899Y-43228D01*
X63885Y-43200D01*
X63871Y-43185D01*
X63842Y-43171D01*
X63785Y-43171D01*
X63757Y-43185D01*
X63585Y-43371D02*
X63614Y-43357D01*
X63628Y-43342D01*
X63642Y-43314D01*
X63642Y-43228D01*
X63628Y-43200D01*
X63614Y-43185D01*
X63585Y-43171D01*
X63542Y-43171D01*
X63514Y-43185D01*
X63499Y-43200D01*
X63485Y-43228D01*
X63485Y-43314D01*
X63499Y-43342D01*
X63514Y-43357D01*
X63542Y-43371D01*
X63585Y-43371D01*
X63357Y-43371D02*
X63357Y-43171D01*
X63357Y-43200D02*
X63342Y-43185D01*
X63314Y-43171D01*
X63271Y-43171D01*
X63242Y-43185D01*
X63228Y-43214D01*
X63228Y-43371D01*
X63228Y-43214D02*
X63214Y-43185D01*
X63185Y-43171D01*
X63142Y-43171D01*
X63114Y-43185D01*
X63099Y-43214D01*
X63099Y-43371D01*
X65214Y-43537D02*
X65471Y-43922D01*
X65114Y-43651D02*
X65114Y-43951D01*
X65114Y-43665D02*
X65085Y-43651D01*
X65028Y-43651D01*
X65000Y-43665D01*
X64985Y-43680D01*
X64971Y-43708D01*
X64971Y-43794D01*
X64985Y-43822D01*
X65000Y-43837D01*
X65028Y-43851D01*
X65085Y-43851D01*
X65114Y-43837D01*
X64728Y-43837D02*
X64757Y-43851D01*
X64814Y-43851D01*
X64842Y-43837D01*
X64857Y-43808D01*
X64857Y-43694D01*
X64842Y-43665D01*
X64814Y-43651D01*
X64757Y-43651D01*
X64728Y-43665D01*
X64714Y-43694D01*
X64714Y-43722D01*
X64857Y-43751D01*
X64585Y-43651D02*
X64585Y-43951D01*
X64585Y-43665D02*
X64557Y-43651D01*
X64499Y-43651D01*
X64471Y-43665D01*
X64457Y-43680D01*
X64442Y-43708D01*
X64442Y-43794D01*
X64457Y-43822D01*
X64471Y-43837D01*
X64499Y-43851D01*
X64557Y-43851D01*
X64585Y-43837D01*
X64185Y-43851D02*
X64185Y-43694D01*
X64199Y-43665D01*
X64228Y-43651D01*
X64285Y-43651D01*
X64314Y-43665D01*
X64185Y-43837D02*
X64214Y-43851D01*
X64285Y-43851D01*
X64314Y-43837D01*
X64328Y-43808D01*
X64328Y-43780D01*
X64314Y-43751D01*
X64285Y-43737D01*
X64214Y-43737D01*
X64185Y-43722D01*
X64057Y-43837D02*
X64028Y-43851D01*
X63971Y-43851D01*
X63942Y-43837D01*
X63928Y-43808D01*
X63928Y-43794D01*
X63942Y-43765D01*
X63971Y-43751D01*
X64014Y-43751D01*
X64042Y-43737D01*
X64057Y-43708D01*
X64057Y-43694D01*
X64042Y-43665D01*
X64014Y-43651D01*
X63971Y-43651D01*
X63942Y-43665D01*
X63757Y-43851D02*
X63785Y-43837D01*
X63799Y-43808D01*
X63799Y-43551D01*
X63514Y-43851D02*
X63514Y-43694D01*
X63528Y-43665D01*
X63557Y-43651D01*
X63614Y-43651D01*
X63642Y-43665D01*
X63514Y-43837D02*
X63542Y-43851D01*
X63614Y-43851D01*
X63642Y-43837D01*
X63657Y-43808D01*
X63657Y-43780D01*
X63642Y-43751D01*
X63614Y-43737D01*
X63542Y-43737D01*
X63514Y-43722D01*
X63371Y-43851D02*
X63371Y-43551D01*
X63371Y-43665D02*
X63342Y-43651D01*
X63285Y-43651D01*
X63257Y-43665D01*
X63242Y-43680D01*
X63228Y-43708D01*
X63228Y-43794D01*
X63242Y-43822D01*
X63257Y-43837D01*
X63285Y-43851D01*
X63342Y-43851D01*
X63371Y-43837D01*
X63114Y-43837D02*
X63085Y-43851D01*
X63028Y-43851D01*
X62999Y-43837D01*
X62985Y-43808D01*
X62985Y-43794D01*
X62999Y-43765D01*
X63028Y-43751D01*
X63071Y-43751D01*
X63099Y-43737D01*
X63114Y-43708D01*
X63114Y-43694D01*
X63099Y-43665D01*
X63071Y-43651D01*
X63028Y-43651D01*
X62999Y-43665D01*
X65214Y-44017D02*
X65471Y-44402D01*
X64985Y-44131D02*
X64985Y-44331D01*
X65114Y-44131D02*
X65114Y-44288D01*
X65100Y-44317D01*
X65071Y-44331D01*
X65028Y-44331D01*
X65000Y-44317D01*
X64985Y-44302D01*
X64857Y-44317D02*
X64828Y-44331D01*
X64771Y-44331D01*
X64742Y-44317D01*
X64728Y-44288D01*
X64728Y-44274D01*
X64742Y-44245D01*
X64771Y-44231D01*
X64814Y-44231D01*
X64842Y-44217D01*
X64857Y-44188D01*
X64857Y-44174D01*
X64842Y-44145D01*
X64814Y-44131D01*
X64771Y-44131D01*
X64742Y-44145D01*
X64599Y-44331D02*
X64599Y-44031D01*
X64599Y-44145D02*
X64571Y-44131D01*
X64514Y-44131D01*
X64485Y-44145D01*
X64471Y-44160D01*
X64457Y-44188D01*
X64457Y-44274D01*
X64471Y-44302D01*
X64485Y-44317D01*
X64514Y-44331D01*
X64571Y-44331D01*
X64599Y-44317D01*
X64328Y-44217D02*
X64099Y-44217D01*
X63999Y-44131D02*
X63885Y-44131D01*
X63957Y-44031D02*
X63957Y-44288D01*
X63942Y-44317D01*
X63914Y-44331D01*
X63885Y-44331D01*
X63828Y-44131D02*
X63714Y-44131D01*
X63785Y-44031D02*
X63785Y-44288D01*
X63771Y-44317D01*
X63742Y-44331D01*
X63714Y-44331D01*
X63571Y-44331D02*
X63599Y-44317D01*
X63614Y-44288D01*
X63614Y-44031D01*
X63457Y-44217D02*
X63228Y-44217D01*
X62957Y-44131D02*
X62957Y-44331D01*
X63028Y-44017D02*
X63099Y-44231D01*
X62914Y-44231D01*
X62799Y-44131D02*
X62799Y-44431D01*
X62799Y-44145D02*
X62771Y-44131D01*
X62714Y-44131D01*
X62685Y-44145D01*
X62671Y-44160D01*
X62657Y-44188D01*
X62657Y-44274D01*
X62671Y-44302D01*
X62685Y-44317D01*
X62714Y-44331D01*
X62771Y-44331D01*
X62799Y-44317D01*
X62399Y-44131D02*
X62399Y-44331D01*
X62471Y-44017D02*
X62542Y-44231D01*
X62357Y-44231D01*
X62114Y-44317D02*
X62142Y-44331D01*
X62199Y-44331D01*
X62228Y-44317D01*
X62242Y-44302D01*
X62257Y-44274D01*
X62257Y-44188D01*
X62242Y-44160D01*
X62228Y-44145D01*
X62199Y-44131D01*
X62142Y-44131D01*
X62114Y-44145D01*
X74978Y-42414D02*
X74950Y-42428D01*
X74907Y-42428D01*
X74864Y-42414D01*
X74835Y-42385D01*
X74821Y-42357D01*
X74807Y-42300D01*
X74807Y-42257D01*
X74821Y-42200D01*
X74835Y-42171D01*
X74864Y-42142D01*
X74907Y-42128D01*
X74935Y-42128D01*
X74978Y-42142D01*
X74992Y-42157D01*
X74992Y-42257D01*
X74935Y-42257D01*
X75121Y-42128D02*
X75121Y-42428D01*
X75292Y-42128D01*
X75292Y-42428D01*
X75435Y-42128D02*
X75435Y-42428D01*
X75507Y-42428D01*
X75550Y-42414D01*
X75578Y-42385D01*
X75592Y-42357D01*
X75607Y-42300D01*
X75607Y-42257D01*
X75592Y-42200D01*
X75578Y-42171D01*
X75550Y-42142D01*
X75507Y-42128D01*
X75435Y-42128D01*
X74992Y-43128D02*
X74892Y-43271D01*
X74821Y-43128D02*
X74821Y-43428D01*
X74935Y-43428D01*
X74964Y-43414D01*
X74978Y-43400D01*
X74992Y-43371D01*
X74992Y-43328D01*
X74978Y-43300D01*
X74964Y-43285D01*
X74935Y-43271D01*
X74821Y-43271D01*
X75092Y-43428D02*
X75292Y-43128D01*
X75292Y-43428D02*
X75092Y-43128D01*
X75407Y-43128D02*
X75407Y-43428D01*
X75478Y-43428D01*
X75521Y-43414D01*
X75550Y-43385D01*
X75564Y-43357D01*
X75578Y-43300D01*
X75578Y-43257D01*
X75564Y-43200D01*
X75550Y-43171D01*
X75521Y-43142D01*
X75478Y-43128D01*
X75407Y-43128D01*
X74778Y-44428D02*
X74950Y-44428D01*
X74864Y-44128D02*
X74864Y-44428D01*
X75021Y-44428D02*
X75221Y-44128D01*
X75221Y-44428D02*
X75021Y-44128D01*
X75335Y-44128D02*
X75335Y-44428D01*
X75407Y-44428D01*
X75449Y-44414D01*
X75478Y-44385D01*
X75492Y-44357D01*
X75507Y-44300D01*
X75507Y-44257D01*
X75492Y-44200D01*
X75478Y-44171D01*
X75449Y-44142D01*
X75407Y-44128D01*
X75335Y-44128D01*
X74964Y-45428D02*
X74821Y-45428D01*
X74807Y-45285D01*
X74821Y-45300D01*
X74850Y-45314D01*
X74921Y-45314D01*
X74950Y-45300D01*
X74964Y-45285D01*
X74978Y-45257D01*
X74978Y-45185D01*
X74964Y-45157D01*
X74950Y-45142D01*
X74921Y-45128D01*
X74850Y-45128D01*
X74821Y-45142D01*
X74807Y-45157D01*
X75064Y-45428D02*
X75164Y-45128D01*
X75264Y-45428D01*
X69578Y-45571D02*
X69721Y-45571D01*
X69735Y-45714D01*
X69721Y-45700D01*
X69692Y-45685D01*
X69621Y-45685D01*
X69592Y-45700D01*
X69578Y-45714D01*
X69564Y-45742D01*
X69564Y-45814D01*
X69578Y-45842D01*
X69592Y-45857D01*
X69621Y-45871D01*
X69692Y-45871D01*
X69721Y-45857D01*
X69735Y-45842D01*
X69478Y-45571D02*
X69378Y-45871D01*
X69278Y-45571D01*
X69935Y-44585D02*
X69964Y-44571D01*
X70007Y-44571D01*
X70050Y-44585D01*
X70078Y-44614D01*
X70092Y-44642D01*
X70107Y-44700D01*
X70107Y-44742D01*
X70092Y-44800D01*
X70078Y-44828D01*
X70050Y-44857D01*
X70007Y-44871D01*
X69978Y-44871D01*
X69935Y-44857D01*
X69921Y-44842D01*
X69921Y-44742D01*
X69978Y-44742D01*
X69792Y-44871D02*
X69792Y-44571D01*
X69621Y-44871D01*
X69621Y-44571D01*
X69478Y-44871D02*
X69478Y-44571D01*
X69407Y-44571D01*
X69364Y-44585D01*
X69335Y-44614D01*
X69321Y-44642D01*
X69307Y-44700D01*
X69307Y-44742D01*
X69321Y-44800D01*
X69335Y-44828D01*
X69364Y-44857D01*
X69407Y-44871D01*
X69478Y-44871D01*
X69892Y-43871D02*
X69992Y-43728D01*
X70064Y-43871D02*
X70064Y-43571D01*
X69950Y-43571D01*
X69921Y-43585D01*
X69907Y-43600D01*
X69892Y-43628D01*
X69892Y-43671D01*
X69907Y-43700D01*
X69921Y-43714D01*
X69950Y-43728D01*
X70064Y-43728D01*
X69792Y-43571D02*
X69592Y-43871D01*
X69592Y-43571D02*
X69792Y-43871D01*
X69478Y-43871D02*
X69478Y-43571D01*
X69407Y-43571D01*
X69364Y-43585D01*
X69335Y-43614D01*
X69321Y-43642D01*
X69307Y-43700D01*
X69307Y-43742D01*
X69321Y-43800D01*
X69335Y-43828D01*
X69364Y-43857D01*
X69407Y-43871D01*
X69478Y-43871D01*
X70035Y-42571D02*
X69864Y-42571D01*
X69949Y-42871D02*
X69949Y-42571D01*
X69792Y-42571D02*
X69592Y-42871D01*
X69592Y-42571D02*
X69792Y-42871D01*
X69478Y-42871D02*
X69478Y-42571D01*
X69407Y-42571D01*
X69364Y-42585D01*
X69335Y-42614D01*
X69321Y-42642D01*
X69307Y-42700D01*
X69307Y-42742D01*
X69321Y-42800D01*
X69335Y-42828D01*
X69364Y-42857D01*
X69407Y-42871D01*
X69478Y-42871D01*
X70035Y-41571D02*
X69850Y-41571D01*
X69950Y-41685D01*
X69907Y-41685D01*
X69878Y-41700D01*
X69864Y-41714D01*
X69850Y-41742D01*
X69850Y-41814D01*
X69864Y-41842D01*
X69878Y-41857D01*
X69907Y-41871D01*
X69992Y-41871D01*
X70021Y-41857D01*
X70035Y-41842D01*
X69764Y-41571D02*
X69664Y-41871D01*
X69564Y-41571D01*
X69492Y-41571D02*
X69307Y-41571D01*
X69407Y-41685D01*
X69364Y-41685D01*
X69335Y-41700D01*
X69321Y-41714D01*
X69307Y-41742D01*
X69307Y-41814D01*
X69321Y-41842D01*
X69335Y-41857D01*
X69364Y-41871D01*
X69450Y-41871D01*
X69478Y-41857D01*
X69492Y-41842D01*
G54D12*
G36*
X67108Y-44280D02*
X67101Y-44277D01*
X67088Y-44268D01*
X67068Y-44255D01*
X67045Y-44240D01*
X67021Y-44224D01*
X67002Y-44211D01*
X66988Y-44202D01*
X66983Y-44199D01*
X66980Y-44200D01*
X66969Y-44206D01*
X66953Y-44214D01*
X66943Y-44219D01*
X66928Y-44225D01*
X66921Y-44227D01*
X66920Y-44225D01*
X66914Y-44213D01*
X66906Y-44194D01*
X66895Y-44168D01*
X66882Y-44138D01*
X66868Y-44106D01*
X66855Y-44073D01*
X66842Y-44042D01*
X66830Y-44013D01*
X66821Y-43990D01*
X66815Y-43974D01*
X66812Y-43967D01*
X66813Y-43966D01*
X66820Y-43959D01*
X66833Y-43949D01*
X66861Y-43926D01*
X66889Y-43892D01*
X66906Y-43853D01*
X66911Y-43809D01*
X66907Y-43769D01*
X66891Y-43731D01*
X66864Y-43696D01*
X66831Y-43670D01*
X66793Y-43654D01*
X66750Y-43649D01*
X66709Y-43653D01*
X66670Y-43669D01*
X66635Y-43695D01*
X66620Y-43712D01*
X66600Y-43748D01*
X66588Y-43785D01*
X66587Y-43794D01*
X66589Y-43836D01*
X66601Y-43876D01*
X66623Y-43911D01*
X66653Y-43940D01*
X66657Y-43943D01*
X66671Y-43954D01*
X66681Y-43961D01*
X66688Y-43967D01*
X66635Y-44094D01*
X66627Y-44114D01*
X66612Y-44149D01*
X66600Y-44179D01*
X66589Y-44203D01*
X66582Y-44219D01*
X66579Y-44225D01*
X66579Y-44225D01*
X66574Y-44226D01*
X66565Y-44223D01*
X66547Y-44214D01*
X66535Y-44208D01*
X66522Y-44202D01*
X66516Y-44199D01*
X66510Y-44202D01*
X66497Y-44210D01*
X66479Y-44223D01*
X66456Y-44238D01*
X66434Y-44253D01*
X66414Y-44266D01*
X66400Y-44276D01*
X66393Y-44279D01*
X66392Y-44279D01*
X66385Y-44276D01*
X66374Y-44266D01*
X66357Y-44250D01*
X66332Y-44226D01*
X66328Y-44222D01*
X66308Y-44202D01*
X66292Y-44184D01*
X66281Y-44172D01*
X66277Y-44167D01*
X66277Y-44167D01*
X66281Y-44160D01*
X66290Y-44145D01*
X66303Y-44125D01*
X66319Y-44101D01*
X66361Y-44040D01*
X66338Y-43983D01*
X66331Y-43965D01*
X66322Y-43943D01*
X66315Y-43928D01*
X66312Y-43921D01*
X66305Y-43919D01*
X66290Y-43915D01*
X66267Y-43911D01*
X66239Y-43906D01*
X66213Y-43901D01*
X66190Y-43896D01*
X66173Y-43893D01*
X66165Y-43892D01*
X66163Y-43890D01*
X66162Y-43887D01*
X66161Y-43879D01*
X66160Y-43864D01*
X66160Y-43842D01*
X66160Y-43809D01*
X66160Y-43806D01*
X66160Y-43775D01*
X66161Y-43750D01*
X66162Y-43735D01*
X66163Y-43728D01*
X66163Y-43728D01*
X66170Y-43726D01*
X66187Y-43723D01*
X66210Y-43718D01*
X66238Y-43713D01*
X66240Y-43713D01*
X66268Y-43707D01*
X66291Y-43702D01*
X66308Y-43699D01*
X66315Y-43696D01*
X66316Y-43694D01*
X66322Y-43683D01*
X66330Y-43666D01*
X66339Y-43645D01*
X66348Y-43623D01*
X66356Y-43603D01*
X66361Y-43589D01*
X66363Y-43582D01*
X66363Y-43582D01*
X66359Y-43575D01*
X66349Y-43561D01*
X66335Y-43541D01*
X66319Y-43517D01*
X66318Y-43515D01*
X66302Y-43491D01*
X66289Y-43471D01*
X66280Y-43457D01*
X66277Y-43451D01*
X66277Y-43450D01*
X66282Y-43443D01*
X66294Y-43430D01*
X66312Y-43412D01*
X66332Y-43391D01*
X66339Y-43385D01*
X66362Y-43362D01*
X66378Y-43348D01*
X66388Y-43340D01*
X66392Y-43338D01*
X66393Y-43338D01*
X66400Y-43342D01*
X66415Y-43352D01*
X66435Y-43366D01*
X66459Y-43382D01*
X66460Y-43383D01*
X66484Y-43399D01*
X66504Y-43413D01*
X66518Y-43422D01*
X66524Y-43425D01*
X66525Y-43425D01*
X66534Y-43423D01*
X66551Y-43417D01*
X66572Y-43409D01*
X66594Y-43400D01*
X66614Y-43392D01*
X66628Y-43385D01*
X66635Y-43381D01*
X66636Y-43381D01*
X66638Y-43372D01*
X66642Y-43354D01*
X66647Y-43330D01*
X66653Y-43301D01*
X66654Y-43297D01*
X66659Y-43268D01*
X66663Y-43245D01*
X66667Y-43229D01*
X66668Y-43222D01*
X66672Y-43222D01*
X66686Y-43221D01*
X66707Y-43220D01*
X66733Y-43220D01*
X66759Y-43220D01*
X66785Y-43220D01*
X66807Y-43221D01*
X66823Y-43222D01*
X66830Y-43224D01*
X66830Y-43224D01*
X66832Y-43233D01*
X66836Y-43250D01*
X66841Y-43275D01*
X66847Y-43304D01*
X66848Y-43309D01*
X66853Y-43337D01*
X66858Y-43360D01*
X66861Y-43376D01*
X66863Y-43382D01*
X66865Y-43383D01*
X66877Y-43389D01*
X66896Y-43396D01*
X66919Y-43406D01*
X66973Y-43428D01*
X67039Y-43382D01*
X67045Y-43378D01*
X67069Y-43362D01*
X67089Y-43349D01*
X67103Y-43340D01*
X67108Y-43337D01*
X67109Y-43337D01*
X67115Y-43343D01*
X67128Y-43355D01*
X67146Y-43373D01*
X67167Y-43393D01*
X67183Y-43409D01*
X67201Y-43427D01*
X67212Y-43440D01*
X67219Y-43448D01*
X67221Y-43453D01*
X67220Y-43456D01*
X67216Y-43463D01*
X67206Y-43477D01*
X67193Y-43498D01*
X67177Y-43521D01*
X67163Y-43541D01*
X67149Y-43563D01*
X67140Y-43579D01*
X67136Y-43586D01*
X67137Y-43590D01*
X67142Y-43603D01*
X67150Y-43622D01*
X67160Y-43646D01*
X67183Y-43698D01*
X67217Y-43705D01*
X67238Y-43709D01*
X67267Y-43714D01*
X67295Y-43720D01*
X67339Y-43728D01*
X67340Y-43887D01*
X67333Y-43890D01*
X67327Y-43892D01*
X67311Y-43896D01*
X67288Y-43900D01*
X67261Y-43905D01*
X67237Y-43910D01*
X67214Y-43914D01*
X67197Y-43917D01*
X67190Y-43919D01*
X67188Y-43921D01*
X67182Y-43933D01*
X67174Y-43951D01*
X67165Y-43972D01*
X67155Y-43995D01*
X67147Y-44015D01*
X67141Y-44031D01*
X67139Y-44039D01*
X67142Y-44045D01*
X67151Y-44059D01*
X67164Y-44079D01*
X67180Y-44102D01*
X67196Y-44125D01*
X67209Y-44145D01*
X67219Y-44159D01*
X67222Y-44166D01*
X67220Y-44170D01*
X67211Y-44181D01*
X67194Y-44199D01*
X67168Y-44225D01*
X67163Y-44229D01*
X67143Y-44249D01*
X67125Y-44265D01*
X67113Y-44276D01*
X67108Y-44280D01*
X67108Y-44280D01*
G37*
M02*
