G04 (created by PCBNEW (22-Jun-2014 BZR 4027)-stable) date Wed 04 Apr 2018 07:59:40 PM CDT*
%MOIN*%
G04 Gerber Fmt 3.4, Leading zero omitted, Abs format*
%FSLAX34Y34*%
G01*
G70*
G90*
G04 APERTURE LIST*
%ADD10C,0.00590551*%
%ADD11C,0.006*%
%ADD12C,0.01*%
G04 APERTURE END LIST*
G54D10*
G54D11*
X70178Y-41800D02*
X69935Y-41800D01*
X69907Y-41814D01*
X69892Y-41828D01*
X69878Y-41857D01*
X69878Y-41914D01*
X69892Y-41942D01*
X69907Y-41957D01*
X69935Y-41971D01*
X70178Y-41971D01*
X69892Y-42100D02*
X69878Y-42142D01*
X69878Y-42214D01*
X69892Y-42242D01*
X69907Y-42257D01*
X69935Y-42271D01*
X69964Y-42271D01*
X69992Y-42257D01*
X70007Y-42242D01*
X70021Y-42214D01*
X70035Y-42157D01*
X70050Y-42128D01*
X70064Y-42114D01*
X70092Y-42100D01*
X70121Y-42100D01*
X70150Y-42114D01*
X70164Y-42128D01*
X70178Y-42157D01*
X70178Y-42228D01*
X70164Y-42271D01*
X70035Y-42500D02*
X70021Y-42542D01*
X70007Y-42557D01*
X69978Y-42571D01*
X69935Y-42571D01*
X69907Y-42557D01*
X69892Y-42542D01*
X69878Y-42514D01*
X69878Y-42400D01*
X70178Y-42400D01*
X70178Y-42500D01*
X70164Y-42528D01*
X70150Y-42542D01*
X70121Y-42557D01*
X70092Y-42557D01*
X70064Y-42542D01*
X70050Y-42528D01*
X70035Y-42500D01*
X70035Y-42400D01*
X69992Y-42700D02*
X69992Y-42928D01*
X70178Y-43028D02*
X70178Y-43200D01*
X69878Y-43114D02*
X70178Y-43114D01*
X70178Y-43257D02*
X70178Y-43428D01*
X69878Y-43342D02*
X70178Y-43342D01*
X69878Y-43671D02*
X69878Y-43528D01*
X70178Y-43528D01*
X70078Y-43957D02*
X70078Y-44071D01*
X70178Y-44000D02*
X69921Y-44000D01*
X69892Y-44014D01*
X69878Y-44042D01*
X69878Y-44071D01*
X69878Y-44214D02*
X69892Y-44185D01*
X69907Y-44171D01*
X69935Y-44157D01*
X70021Y-44157D01*
X70050Y-44171D01*
X70064Y-44185D01*
X70078Y-44214D01*
X70078Y-44257D01*
X70064Y-44285D01*
X70050Y-44300D01*
X70021Y-44314D01*
X69935Y-44314D01*
X69907Y-44300D01*
X69892Y-44285D01*
X69878Y-44257D01*
X69878Y-44214D01*
X70078Y-44800D02*
X69878Y-44800D01*
X70192Y-44728D02*
X69978Y-44657D01*
X69978Y-44842D01*
X69878Y-44957D02*
X70178Y-44957D01*
X70178Y-45071D01*
X70164Y-45100D01*
X70150Y-45114D01*
X70121Y-45128D01*
X70078Y-45128D01*
X70050Y-45114D01*
X70035Y-45100D01*
X70021Y-45071D01*
X70021Y-44957D01*
X70078Y-45385D02*
X69878Y-45385D01*
X70192Y-45314D02*
X69978Y-45242D01*
X69978Y-45428D01*
X69907Y-45714D02*
X69892Y-45699D01*
X69878Y-45657D01*
X69878Y-45628D01*
X69892Y-45585D01*
X69921Y-45557D01*
X69950Y-45542D01*
X70007Y-45528D01*
X70050Y-45528D01*
X70107Y-45542D01*
X70135Y-45557D01*
X70164Y-45585D01*
X70178Y-45628D01*
X70178Y-45657D01*
X70164Y-45699D01*
X70150Y-45714D01*
X69284Y-43450D02*
X69298Y-43435D01*
X69341Y-43407D01*
X69370Y-43392D01*
X69412Y-43378D01*
X69484Y-43364D01*
X69541Y-43364D01*
X69612Y-43378D01*
X69655Y-43392D01*
X69684Y-43407D01*
X69727Y-43435D01*
X69741Y-43450D01*
X69598Y-43535D02*
X69398Y-43607D01*
X69598Y-43678D01*
X69398Y-43950D02*
X69398Y-43778D01*
X69398Y-43864D02*
X69698Y-43864D01*
X69655Y-43835D01*
X69627Y-43807D01*
X69612Y-43778D01*
X69284Y-44050D02*
X69298Y-44064D01*
X69341Y-44092D01*
X69370Y-44107D01*
X69412Y-44121D01*
X69484Y-44135D01*
X69541Y-44135D01*
X69612Y-44121D01*
X69655Y-44107D01*
X69684Y-44092D01*
X69727Y-44064D01*
X69741Y-44050D01*
G54D12*
X68000Y-41250D02*
X68000Y-46250D01*
X69000Y-41250D02*
X69000Y-46250D01*
X69000Y-42250D02*
X68000Y-42250D01*
X69000Y-46250D02*
X68000Y-46250D01*
X68000Y-41250D02*
X69000Y-41250D01*
X72503Y-45956D02*
X79590Y-45956D01*
X72503Y-41547D02*
X79590Y-41547D01*
X72503Y-45956D02*
X72503Y-41547D01*
X79590Y-45956D02*
X79590Y-41547D01*
X71000Y-44850D02*
X71000Y-45250D01*
X71000Y-42650D02*
X71000Y-42250D01*
X71400Y-44850D02*
X71400Y-42650D01*
X70600Y-42650D02*
X70600Y-44850D01*
X70600Y-42900D02*
X71400Y-42900D01*
X71000Y-42650D02*
X70600Y-42650D01*
X70600Y-44850D02*
X71000Y-44850D01*
X71000Y-44850D02*
X71400Y-44850D01*
X71400Y-42650D02*
X71000Y-42650D01*
G54D11*
X71121Y-44492D02*
X71121Y-44664D01*
X71121Y-44578D02*
X70821Y-44578D01*
X70864Y-44607D01*
X70892Y-44635D01*
X70907Y-44664D01*
X71121Y-44364D02*
X70821Y-44364D01*
X71121Y-44192D01*
X70821Y-44192D01*
X70921Y-43921D02*
X71121Y-43921D01*
X70807Y-43992D02*
X71021Y-44064D01*
X71021Y-43878D01*
X71121Y-43607D02*
X71121Y-43778D01*
X71121Y-43692D02*
X70821Y-43692D01*
X70864Y-43721D01*
X70892Y-43750D01*
X70907Y-43778D01*
X70921Y-43350D02*
X71121Y-43350D01*
X70807Y-43421D02*
X71021Y-43492D01*
X71021Y-43307D01*
X70950Y-43150D02*
X70935Y-43178D01*
X70921Y-43192D01*
X70892Y-43207D01*
X70878Y-43207D01*
X70850Y-43192D01*
X70835Y-43178D01*
X70821Y-43150D01*
X70821Y-43092D01*
X70835Y-43064D01*
X70850Y-43050D01*
X70878Y-43035D01*
X70892Y-43035D01*
X70921Y-43050D01*
X70935Y-43064D01*
X70950Y-43092D01*
X70950Y-43150D01*
X70964Y-43178D01*
X70978Y-43192D01*
X71007Y-43207D01*
X71064Y-43207D01*
X71092Y-43192D01*
X71107Y-43178D01*
X71121Y-43150D01*
X71121Y-43092D01*
X71107Y-43064D01*
X71092Y-43050D01*
X71064Y-43035D01*
X71007Y-43035D01*
X70978Y-43050D01*
X70964Y-43064D01*
X70950Y-43092D01*
M02*
